<svg width="16" height="16" viewBox="0 0 16 16" fill="none" xmlns="http://www.w3.org/2000/svg">
<path d="M16 8.0298C16 3.59459 12.4187 0 8 0C3.58125 0 0 3.59459 0 8.0298C0 11.7938 2.58438 14.9555 6.06875 15.8243V10.4827H4.41875V8.0298H6.06875V6.97275C6.06875 4.24074 7.3 2.97353 9.975 2.97353C10.4813 2.97353 11.3562 3.07391 11.7156 3.17428V5.39502C11.5281 5.3762 11.2 5.36365 10.7906 5.36365C9.47812 5.36365 8.97188 5.86238 8.97188 7.15781V8.0298H11.5844L11.1344 10.4827H8.96875V16C12.9313 15.5201 16 12.1357 16 8.0298Z" fill="black" style="fill:black;fill-opacity:1;"/>
</svg>
