<svg width="16" height="16" viewBox="0 0 16 16" fill="none" xmlns="http://www.w3.org/2000/svg">
<path d="M9.71875 6.15V8.69062C9.71875 8.75625 9.66875 8.80625 9.60312 8.80625H9.19687C9.15625 8.80625 9.12187 8.78437 9.10312 8.75937L7.9375 7.1875V8.69375C7.9375 8.75937 7.8875 8.80937 7.82187 8.80937H7.41563C7.35 8.80937 7.3 8.75937 7.3 8.69375V6.15313C7.3 6.0875 7.35 6.0375 7.41563 6.0375H7.81875C7.85313 6.0375 7.89375 6.05625 7.9125 6.0875L9.07812 7.65938V6.15313C9.07812 6.0875 9.12812 6.0375 9.19375 6.0375H9.6C9.66562 6.03438 9.71875 6.0875 9.71875 6.14688V6.15ZM6.79063 6.03438H6.38438C6.31875 6.03438 6.26875 6.08438 6.26875 6.15V8.69062C6.26875 8.75625 6.31875 8.80625 6.38438 8.80625H6.79063C6.85625 8.80625 6.90625 8.75625 6.90625 8.69062V6.15C6.90625 6.09063 6.85625 6.03438 6.79063 6.03438ZM5.80938 8.1625H4.69688V6.15C4.69688 6.08438 4.64688 6.03438 4.58125 6.03438H4.175C4.10938 6.03438 4.05938 6.08438 4.05938 6.15V8.69062C4.05938 8.72187 4.06875 8.74687 4.09063 8.76875C4.1125 8.7875 4.1375 8.8 4.16875 8.8H5.8C5.86563 8.8 5.91563 8.75 5.91563 8.68437V8.27812C5.91563 8.21875 5.86563 8.1625 5.80625 8.1625H5.80938ZM11.8625 6.03438H10.2281C10.1687 6.03438 10.1125 6.08438 10.1125 6.15V8.69062C10.1125 8.75 10.1625 8.80625 10.2281 8.80625H11.8594C11.925 8.80625 11.975 8.75625 11.975 8.69062V8.28125C11.975 8.21562 11.925 8.16562 11.8594 8.16562H10.75V7.74063H11.8594C11.925 7.74063 11.975 7.69063 11.975 7.625V7.21563C11.975 7.15 11.925 7.1 11.8594 7.1H10.75V6.67188H11.8594C11.925 6.67188 11.975 6.62188 11.975 6.55625V6.15C11.9719 6.09063 11.9219 6.03438 11.8594 6.03438H11.8625ZM16 2.91875V13.1062C15.9969 14.7062 14.6844 16.0031 13.0812 16H2.89375C1.29375 15.9969 -0.00311936 14.6812 5.63574e-06 13.0812V2.89375C0.00313063 1.29375 1.31875 -0.00311936 2.91875 5.63574e-06H13.1062C14.7062 0.00313063 16.0031 1.31563 16 2.91875ZM13.8 7.29688C13.8 4.69063 11.1844 2.56875 7.975 2.56875C4.76563 2.56875 2.15 4.69063 2.15 7.29688C2.15 9.63125 4.22188 11.5906 7.02188 11.9625C7.70313 12.1094 7.625 12.3594 7.47188 13.2781C7.44688 13.425 7.35313 13.8531 7.975 13.5937C8.59687 13.3344 11.3281 11.6187 12.5531 10.2125C13.3969 9.28437 13.8 8.34375 13.8 7.30313V7.29688Z" fill="black" style="fill:black;fill-opacity:1;"/>
</svg>
