<svg width="24" height="24" viewBox="0 0 24 24" fill="none" xmlns="http://www.w3.org/2000/svg">
<path d="M5.31134 8.1522C5.3637 7.12238 5.64994 6.15336 6.11755 5.29688C4.66279 6.5754 3.6261 8.31745 3.2417 10.2911C3.76305 9.43286 4.47255 8.70174 5.31134 8.1522Z" fill="black" style="fill:black;fill-opacity:1;"/>
<path d="M18.5933 9.67712C18.3057 11.2861 17.442 12.6977 16.2236 13.6904C16.2186 13.1529 16.1547 12.6242 16.0355 12.1116C16.8151 11.2422 17.3177 10.1207 17.406 8.88604C16.688 8.53446 15.8818 8.33639 15.0298 8.33639C12.3741 8.33639 10.1598 10.2562 9.69811 12.7806C9.2864 12.5586 8.91034 12.2789 8.58043 11.9525C9.37076 9.1335 11.9618 7.05932 15.0298 7.05932C15.8345 7.05932 16.6063 7.20219 17.3216 7.46344C16.8551 5.05469 14.7901 3.20902 12.2783 3.08128C12.19 3.07857 12.102 3.07469 12.0131 3.07449C12.0086 3.07449 12.0042 3.07422 11.9997 3.07422C11.9062 3.07422 11.8138 3.07839 11.721 3.08128C9.20923 3.20908 7.14428 5.05469 6.67783 7.46344C7.39312 7.20219 8.16501 7.05932 8.96965 7.05932C9.81199 7.05932 10.6178 7.21715 11.361 7.50229C10.9019 7.7726 10.475 8.0916 10.0876 8.45281C9.7267 8.37686 9.35284 8.33639 8.96965 8.33639C8.11781 8.33639 7.31155 8.53446 6.59359 8.88593C6.79437 11.694 9.14139 13.9176 11.9997 13.9176C12.6419 13.9176 13.2579 13.8048 13.8301 13.599C13.8318 13.652 13.8345 13.7049 13.8345 13.7581C13.8345 14.1805 13.7802 14.5904 13.6785 14.9814C13.1418 15.1205 12.5792 15.1946 11.9997 15.1946C8.70886 15.1946 5.96666 12.8086 5.40726 9.6762C4.26901 10.6708 3.54785 12.1314 3.54785 13.7581C3.54785 14.6846 3.78186 15.5573 4.19323 16.3209C4.24274 16.41 4.29324 16.4984 4.34566 16.5856C5.29989 18.1404 7.01551 19.1798 8.96965 19.1798C9.58453 19.1798 10.1752 19.0755 10.7266 18.886C9.51553 17.8678 8.66799 16.4305 8.41235 14.7987C8.87109 15.0608 9.36015 15.2754 9.8742 15.4332C10.2518 16.5925 11.01 17.5813 12.0004 18.2515C13.4419 17.2762 14.3913 15.626 14.3913 13.7581C14.3913 12.1023 13.6444 10.6185 12.4708 9.62309C12.8622 9.38003 13.2904 9.19137 13.7452 9.06659C14.9335 10.2762 15.6683 11.9326 15.6683 13.7581C15.6683 15.8147 14.736 17.657 13.2726 18.8867C13.8239 19.0763 14.4149 19.1798 15.0298 19.1798C16.9843 19.1798 18.7002 18.1401 19.6543 16.5848C19.7063 16.4982 19.7565 16.4103 19.8057 16.3218C20.2173 15.558 20.4515 14.6849 20.4515 13.7581C20.4515 12.132 19.7309 10.6717 18.5933 9.67712Z" fill="black" style="fill:black;fill-opacity:1;"/>
<path d="M9.13916 20.4526C10.038 20.7576 10.9994 20.9256 12 20.9256C13.0002 20.9256 13.9613 20.7577 14.8597 20.453C13.8326 20.4271 12.8627 20.1693 11.9998 19.7295C11.1366 20.1693 10.1664 20.4269 9.13916 20.4526Z" fill="black" style="fill:black;fill-opacity:1;"/>
<path d="M17.8843 5.29688C18.3519 6.15334 18.6381 7.12241 18.6905 8.15225C19.5293 8.70167 20.2388 9.43291 20.7601 10.2912C20.3758 8.3175 19.3391 6.57543 17.8843 5.29688Z" fill="black" style="fill:black;fill-opacity:1;"/>
<path d="M12 0C5.37259 0 0 5.37257 0 12C0 18.6274 5.37259 24 12 24C18.6274 24 24 18.6274 24 12C24 5.37257 18.6274 0 12 0ZM20.7466 17.2463C18.9602 20.2133 15.7084 22.2026 11.9999 22.2026C8.29209 22.2026 5.04064 20.2138 3.25411 17.2476C3.19021 17.1433 3.12917 17.0371 3.0709 16.9293C2.26051 15.467 1.79737 13.7869 1.79737 12.0001C1.79737 6.38809 6.35197 1.82092 11.9586 1.79842C11.9725 1.79835 11.9861 1.79737 11.9999 1.79737C17.6258 1.79737 22.2026 6.37429 22.2026 12.0001C22.2026 13.7875 21.7392 15.4681 20.9283 16.9306C20.8705 17.0377 20.8099 17.1429 20.7466 17.2463Z" fill="black" style="fill:black;fill-opacity:1;"/>
</svg>
