<svg xmlns="http://www.w3.org/2000/svg" width="237" height="32" viewBox="0 0 237 32" fill="none">
<path d="M133.344 25.2053C132.42 24.6726 131.191 24.3193 130.942 24.3193C130.766 24.3193 130.512 24.4356 130.512 24.646C130.512 24.8062 130.612 24.9811 131.21 25.6976C131.401 25.9267 131.907 26.6249 132.486 28.1539C133.101 29.8953 133.211 30.2092 134.008 30.2092C134.733 30.2092 135.54 29.41 135.54 28.2633C135.54 26.5811 133.859 25.497 133.344 25.2053Z" fill="black" style="fill:black;fill-opacity:1;"/>
<path d="M25.0916 4.48242C24.6966 4.48242 24.2568 4.66376 24.2568 4.92344C24.2568 5.10083 24.4934 5.31321 24.8747 5.59753L24.9018 5.61772C26.6036 6.79294 26.9857 7.12014 27.6307 7.95536C28.8508 9.45087 29.1977 9.73321 29.8146 9.73321C30.5168 9.73321 31.082 8.84626 31.082 8.11156C31.082 7.18124 29.6071 4.48242 25.0916 4.48242Z" fill="black" style="fill:black;fill-opacity:1;"/>
<path d="M30.1463 1.53853C29.6785 1.47693 28.8777 1.47447 28.5895 1.72726C28.5104 1.79673 28.4688 1.88346 28.4688 1.97856C28.4688 2.12638 28.5993 2.357 28.9684 2.56198C30.2003 3.21636 31.6002 4.49063 32.0272 5.18935C32.5133 6.0497 33.0644 7.02436 34.0654 7.02436C34.6994 7.02436 35.215 6.40301 35.215 5.63874C35.215 3.72439 33.0846 2.00024 30.1463 1.53853Z" fill="black" style="fill:black;fill-opacity:1;"/>
<path d="M25.8264 24.5095C24.9335 24.5095 23.4878 24.8431 22.5289 25.0644C22.2505 25.1338 20.3533 25.4541 18.9452 25.4541C16.7109 25.4541 14.5033 25.9106 14.1902 22.8186C14.1123 22.0775 14.1123 18.4424 14.1123 15.2356C14.1123 14.3107 14.3562 13.9726 15.2432 13.6642C15.4287 13.607 16.3223 13.3173 17.3901 12.9709C19.1608 12.3968 21.5857 11.6109 21.7002 11.5833C22.0015 11.5833 22.0466 11.9977 22.0466 12.2446C22.0466 13.163 19.4961 16.5044 18.8122 17.6003C18.7797 17.6653 18.6257 17.9265 18.4766 18.1783C18.0514 18.8987 18.0514 18.9041 18.0514 18.9554C18.0514 19.1934 18.2335 19.3176 18.4136 19.3176C18.4742 19.3176 18.6353 19.3176 21.4312 17.5279L21.5189 17.4746C22.8626 16.6532 25.4136 14.2599 26.1872 14.2599C26.2604 14.2599 26.4982 14.2806 26.7076 14.2988C26.9431 14.3195 27.1658 14.3387 27.2501 14.3387C27.8264 14.3387 28.0843 13.9785 28.0843 13.6218C28.0843 11.8967 23.8065 8.85144 22.6842 8.85144C22.481 8.85144 22.0284 9.09437 21.4115 9.43782C21.2043 9.55313 21.0254 9.65266 20.9389 9.69011C19.8802 10.1814 15.3486 11.3196 15.088 11.331C14.6494 11.331 14.4272 11.122 14.4272 10.7096C14.4272 10.5608 14.7049 7.48141 15.0109 6.25593C15.034 6.18646 15.1281 5.99329 15.2279 5.7888C15.5324 5.1635 15.7653 4.6678 15.7653 4.44458C15.7653 4.16223 15.493 3.75669 14.9328 3.2053L14.8936 3.16735C12.9465 1.53781 12.7373 1.40625 12.097 1.40625C11.8811 1.40625 10.1602 1.67136 10.1602 2.20107C10.1602 2.27252 10.2036 2.35529 10.5091 2.80074C10.5761 2.89831 10.6318 2.97863 10.6537 3.01904L10.6793 3.05747C11.5914 4.42536 12.0494 5.82692 12.0494 10.001C12.0494 12.0918 11.9615 12.3066 11.0021 12.555L10.176 12.7728C4.96068 14.1461 4.29053 14.3225 2.80809 14.3225C2.44197 14.3225 1.73733 14.286 1.3828 14.2082C0.840771 14.0534 0.781887 14.047 0.643423 14.047C0.467757 14.047 0.28125 14.1466 0.28125 14.3304C0.28125 14.5797 1.91522 17.6052 3.98897 17.6052C4.8981 17.6052 5.19104 17.451 7.46903 16.2536C7.61858 16.1816 10.7025 15.1651 11.1129 15.1651C11.5096 15.1651 11.7737 15.2976 11.7737 15.9441C11.7737 16.2639 11.756 17.21 11.737 18.2118C11.7166 19.2944 11.6954 20.4139 11.6954 20.8244C11.6954 27.4588 12.6614 28.5402 19.4567 28.5402C21.6492 28.5402 27.6057 28.5403 27.6057 25.8951C27.6057 25.226 26.8907 24.5095 25.8264 24.5095Z" fill="black" style="fill:black;fill-opacity:1;"/>
<path d="M64.2452 6.80566C63.9345 6.80566 63.8064 6.86972 62.8093 7.37036L62.4186 7.56598C61.4144 8.0479 52.4753 9.16695 51.2568 9.16695C50.3659 9.16695 50.3466 9.15068 49.3545 8.31152L49.2892 8.2588C48.9147 7.9661 48.1357 7.35656 46.5337 7.35656C45.9459 7.35656 44.7549 7.96708 44.7549 8.46674C44.7549 8.5983 44.8266 8.71312 44.9756 8.81216L45.0367 8.84714C45.8121 9.29013 45.9518 9.36996 46.5106 10.115C47.8008 11.8988 47.9036 17.4856 47.9036 24.6035C47.9036 26.6597 48.6356 27.0914 49.2498 27.0914C50.1734 27.0914 50.3393 26.7248 51.037 25.181L51.0954 25.0514C51.3814 24.4477 57.7103 24.0215 58.9319 24.0215C60.15 24.0215 62.2678 24.1452 63.7983 24.3748C63.9405 24.3911 64.3334 24.4857 64.7493 24.5862C65.3613 24.7345 65.994 24.8873 66.2133 24.8873C66.5084 24.8873 67.0872 24.6473 67.0872 24.092C67.0872 23.716 66.8186 23.3676 66.5617 23.1626C64.6618 21.8169 64.529 21.6898 64.529 21.2187C64.529 20.7422 66.0674 13.6229 67.2195 12.1634L67.4124 11.9067C67.9626 11.1774 68.1104 10.9818 68.1104 10.5131C68.1104 8.76485 64.8015 6.80566 64.2452 6.80566ZM63.4499 11.3789C63.4499 11.642 62.24 20.7713 62.1577 21.1394C62.0007 21.6105 61.6376 21.6435 57.7621 21.8519L57.2309 21.8805C56.1458 21.9549 54.8898 22.0737 54.3099 22.1564C54.0048 22.1983 53.6313 22.2545 53.2632 22.3102C52.6116 22.4082 51.9377 22.5097 51.7687 22.5097C51.3799 22.5097 50.7926 22.5097 50.7926 21.2976C50.7926 20.585 50.7088 18.6076 50.628 16.6947C50.5506 14.8716 50.4777 13.1489 50.4777 12.56C50.4777 11.4893 50.4777 11.4474 54.0714 10.8738L54.0728 10.8734C54.9891 10.7142 60.6903 10.0096 62.5137 10.0096C63.3388 10.0096 63.4499 10.7019 63.4499 11.3789Z" fill="black" style="fill:black;fill-opacity:1;"/>
<path d="M100.282 20.3574C100.045 20.3574 99.9432 20.4782 99.3748 21.1537C99.1875 21.3947 99.052 21.4597 98.4563 21.4597H94.0471C93.4627 21.4597 92.899 21.3646 92.4886 21.1936C92.4341 21.1744 92.1567 21.0468 91.8744 20.9172C91.4105 20.7047 91.1588 20.5984 91.1192 20.5984C90.9455 20.5984 90.6543 20.6856 90.6543 21.27C90.6543 21.4045 90.69 21.7672 90.7282 22.151C90.758 22.4546 90.792 22.799 90.792 22.8887C90.792 23.278 90.8011 23.6678 90.81 24.0477C90.8184 24.4074 90.8265 24.7587 90.8265 25.0933C90.8265 25.3205 90.7997 25.9665 90.7733 26.5996C90.7479 27.2146 90.723 27.8177 90.723 28.0212C90.723 28.5958 90.8176 29.2093 91.9458 29.2093C93.2361 29.2093 93.443 28.4642 93.6086 27.868C93.7409 27.4181 93.8786 27.4181 94.3916 27.4181H98.3528C98.9109 27.4181 99.1378 27.6694 99.1649 27.9118C99.259 28.5406 99.3336 29.0373 100.144 29.0373C100.823 29.0373 102.09 28.4164 102.09 27.2289C102.09 27.1555 102.078 26.578 102.063 25.9157C102.044 25.0317 102.021 23.9964 102.021 23.819C102.021 23.5096 102.125 23.3795 102.252 23.2524L102.31 23.1839C102.871 22.5241 102.917 22.4699 102.917 22.2343C102.917 21.4696 100.523 20.3574 100.282 20.3574ZM99.2659 24.6109C99.2659 25.9398 99.2659 26.1443 98.3528 26.1443H94.4606C93.5482 26.1443 93.513 26.0744 93.513 24.2664C93.513 22.9375 93.513 22.7335 94.4606 22.7335H98.3528C99.2403 22.7335 99.2659 22.7862 99.2659 24.6109Z" fill="black" style="fill:black;fill-opacity:1;"/>
<path d="M108.549 16.1904C108.283 16.1904 108.148 16.3057 107.342 17.2163C107.02 17.5677 106.812 17.6027 106.379 17.6027H87.3647C86.8261 17.6027 86.2304 17.5012 85.9433 17.4061C85.7881 17.3543 85.3915 17.1641 84.9716 16.9626C84.0233 16.5083 83.556 16.2939 83.369 16.2939C83.0866 16.2939 82.9043 16.5575 82.9043 16.965C82.9043 17.1567 83.0467 18.8148 83.0768 19.1115C83.1797 20.8977 83.1797 23.7552 83.1797 25.6459C83.1797 26.0652 83.1435 27.2207 83.1088 28.3378C83.0743 29.4362 83.0418 30.4739 83.0418 30.8474C83.0418 31.3643 83.1275 31.8285 84.1613 31.8285C85.4479 31.8285 86.2794 31.0647 86.2794 29.8826C86.2794 29.2253 86.2427 27.4168 86.2075 25.6686C86.1737 23.9912 86.1417 22.407 86.1417 21.8566C86.1417 19.8928 86.4345 18.9109 87.0203 18.9109H106.483C107.024 18.9109 107.44 18.9533 107.465 19.4929C107.499 19.9689 107.499 21.457 107.499 23.9232C107.499 24.2253 107.49 25.0487 107.481 25.8459C107.472 26.5964 107.465 27.3242 107.465 27.5745C107.465 28.1412 107.465 28.4536 106.379 28.4536C106.146 28.4536 105.452 28.4137 104.839 28.3782C104.258 28.3447 103.755 28.3156 103.589 28.3156C103.434 28.3156 103.021 28.3156 103.021 28.6428C103.021 28.8094 103.181 29.1361 103.777 29.3066C104.642 29.5588 105.319 30.0541 105.734 30.7356C106.215 31.5619 106.432 31.8975 106.965 31.8975C107.263 31.8975 108.302 31.5619 109.038 31.0356C110.323 30.1181 110.323 29.3154 110.323 28.5393C110.323 28.0072 110.296 26.5368 110.269 25.1147C110.244 23.7631 110.22 22.4469 110.22 21.9946C110.22 20.1009 110.379 19.7171 110.452 19.6348C111.109 18.8385 111.219 18.6971 111.219 18.3773C111.219 17.5652 108.813 16.1904 108.549 16.1904Z" fill="black" style="fill:black;fill-opacity:1;"/>
<path d="M104.768 10.1612C105.133 9.75274 105.293 9.55613 105.293 9.38662C105.293 8.73323 102.938 7.47523 102.692 7.47523C102.443 7.47523 102.161 7.69894 101.654 8.29763C101.465 8.51444 101.325 8.57753 100.763 8.57753H93.185C92.4917 8.57753 92.0866 8.54204 91.3608 8.21238C91.3236 8.19711 91.2162 8.15129 91.0698 8.08871C89.7039 7.50479 89.4282 7.40625 89.3272 7.40625C89.1151 7.40625 88.8623 7.50479 88.8623 7.97439C88.8623 8.03746 88.8828 8.1705 88.9163 8.38189C88.9399 8.53218 88.965 8.68199 88.9658 8.74062C89.0013 9.52065 89.0345 11.2793 89.0345 12.0736C89.0345 12.2668 89.0165 12.8192 88.999 13.3582C88.982 13.8776 88.9655 14.3846 88.9655 14.5536C88.9655 15.3135 88.9655 16.2586 90.2915 16.2586C91.5542 16.2586 91.8935 15.4022 92.0386 15.0361L92.0571 14.9883C92.1453 14.701 92.3419 14.6739 92.8405 14.6739H100.522C101.088 14.6739 101.363 14.6951 101.437 15.1656C101.511 15.6845 101.62 16.0516 102.348 16.0516C103.42 16.0516 104.397 15.2223 104.397 14.3122C104.397 14.0781 104.378 13.441 104.361 12.8305C104.344 12.2727 104.328 11.7376 104.328 11.5567C104.328 11.3197 104.368 10.7456 104.421 10.585C104.448 10.52 104.64 10.3041 104.768 10.1612ZM101.573 10.7989C101.573 12.5327 101.292 13.3996 100.729 13.3996H92.7716C91.9925 13.3996 91.962 13.3996 91.962 11.0743C91.962 10.0622 91.962 9.85129 92.9095 9.85129H100.763C101.573 9.85129 101.573 10.2282 101.573 10.7989Z" fill="black" style="fill:black;fill-opacity:1;"/>
<path d="M108.548 2.34348C108.091 2.34348 107.957 2.53022 107.087 3.74437L106.948 3.93802C106.488 4.58205 106.047 4.58206 105.379 4.58206H99.11C98.3014 4.58206 98.128 4.47661 98.128 3.35904C98.128 3.158 98.128 2.68693 98.3441 2.4982C98.9351 1.94188 99.0583 1.82657 99.0583 1.49889C99.0583 1.015 98.5717 0.889846 98.2167 0.798194L98.0881 0.764188C97.5677 0.634101 95.9774 0.276367 95.4587 0.276367C95.1838 0.276367 94.8906 0.314807 94.8906 0.775532C94.8906 0.953909 94.9894 1.56443 95.0862 2.13799L95.0995 2.21684C95.1692 2.67017 95.2005 3.31913 95.2005 3.63498C95.2005 4.27458 95.1604 4.58206 94.253 4.58206H87.9494C86.3073 4.58206 84.8894 4.58205 83.1956 4.47907C83.1064 4.47907 82.7886 4.44507 82.5082 4.41501C82.152 4.37707 81.8154 4.3411 81.6801 4.3411C81.5079 4.3411 81.3877 4.46133 81.3877 4.63379C81.3877 4.74663 81.4328 4.82646 81.5688 4.96098L82.2352 5.76614L82.3116 5.84547C82.4168 5.95733 82.5161 6.06278 82.6792 6.06278C82.7433 6.06278 82.8699 6.04209 83.0717 6.00858C83.2124 5.98542 83.3528 5.96028 83.4213 5.95881C83.8722 5.91347 85.3376 5.89081 87.7772 5.89081H110.374C111.608 5.89081 112.423 5.89081 112.423 5.21919C112.423 4.69933 108.993 2.34348 108.548 2.34348Z" fill="black" style="fill:black;fill-opacity:1;"/>
<path d="M136.264 8.6631C136.264 8.83014 136.404 8.95581 136.591 8.95581C137.017 8.95581 139.21 7.11044 140.234 6.11409C140.739 5.64006 140.855 5.57994 141.723 5.57994H143.136C143.659 5.57994 144.153 5.57995 144.638 7.90969C145.089 10.0586 145.182 10.5055 146.167 10.5055C147.111 10.5055 147.768 9.67966 147.768 8.93856C147.768 8.32951 147.64 7.7323 146.03 6.08945L145.992 6.04806C145.718 5.75093 145.634 5.65533 145.608 5.58979C145.684 5.57994 145.815 5.57994 145.926 5.57994H151.609C152.823 5.57994 153.624 5.57995 153.624 4.90832C153.624 4.13371 150.635 2.30806 150.163 2.30806C149.628 2.30806 149.481 2.54162 148.79 3.78632C148.543 4.25345 148.193 4.27119 146.752 4.27119H142.447C142.336 4.27119 142.194 4.27119 142.113 4.25838C142.292 3.94253 143.103 2.84269 143.702 2.52831C144.518 2.1208 144.737 2.01092 144.737 1.60145C144.737 0.624314 141.276 0 141.241 0C140.926 0 140.794 0.462204 140.611 1.10131C140.212 2.48496 139.094 4.49489 137.197 7.24052C137.159 7.29128 136.264 8.48867 136.264 8.6631Z" fill="black" style="fill:black;fill-opacity:1;"/>
<path d="M151.301 15.1918C150.881 15.1918 150.743 15.3544 149.847 16.4109L149.742 16.5351C149.317 17.052 149.224 17.052 147.684 17.052H141.139C140.122 17.052 140.122 16.9416 140.122 15.5875C140.122 14.2812 140.122 13.8412 140.214 13.654C140.3 13.4204 140.443 13.4002 141.139 13.4002H149.441C150.654 13.4002 151.455 13.4002 151.455 12.6941C151.455 11.9638 148.852 10.2658 148.373 10.2658C148.02 10.2658 147.899 10.4052 147.225 11.1788L146.849 11.6095C146.45 12.0934 146.317 12.1008 145.029 12.0914H141.104C140.396 12.0914 140.191 12.0658 140.191 11.4883C140.191 10.9063 140.321 10.7137 140.377 10.658C140.793 10.2421 141.018 9.96568 141.018 9.69713C141.018 8.83579 137.932 8.47461 137.901 8.47461C137.31 8.47461 137.264 8.83038 137.264 8.93928C137.264 9.10484 137.287 9.60252 137.312 10.1229C137.339 10.69 137.367 11.2769 137.367 11.4883C137.367 12.0683 137.104 12.0914 136.454 12.0914H132.837C131.292 12.0914 129.838 12.0594 128.118 11.9879C128.007 11.9879 127.665 11.952 127.363 11.9204C127.021 11.8845 126.699 11.8505 126.568 11.8505C126.396 11.8505 126.275 11.9707 126.275 12.1427C126.275 12.2555 126.321 12.3353 126.46 12.4738L127.163 13.2859C127.268 13.4263 127.377 13.5721 127.567 13.5721C127.691 13.5721 128.224 13.4997 128.325 13.4687C128.401 13.4687 128.519 13.4647 128.697 13.4583C129.241 13.4396 130.372 13.4002 132.665 13.4002H136.489C137.339 13.4002 137.436 13.4835 137.436 14.2098V16.1729C137.436 16.8958 137.256 17.052 136.42 17.052H129.392C127.987 17.052 126.752 17.0002 125.322 16.9406L124.673 16.914C124.576 16.914 124.284 16.8904 123.981 16.8657C123.626 16.8376 123.29 16.8105 123.158 16.8105C122.903 16.8105 122.865 16.9722 122.865 17.0687C122.865 17.2042 122.896 17.2427 123.046 17.4304L123.713 18.2356L123.776 18.3011C123.872 18.4026 123.963 18.4982 124.157 18.4982C124.235 18.4982 124.416 18.478 124.585 18.4588C124.715 18.444 124.835 18.4292 124.917 18.4258C125.276 18.3538 126.482 18.3257 129.221 18.3257H152.334C153.612 18.3257 154.383 18.3257 154.383 17.6541C154.383 16.9135 151.78 15.1918 151.301 15.1918Z" fill="black" style="fill:black;fill-opacity:1;"/>
<path d="M124.192 9.71335C124.939 9.71335 128.558 6.38776 128.591 6.35671C128.985 5.99503 129.326 5.68263 130.013 5.68263C131.094 5.68263 131.381 7.71031 131.444 8.33611C131.616 10.1613 131.72 11.2631 132.907 11.2631C133.819 11.2631 134.508 10.486 134.508 9.45515C134.508 7.92712 133.229 6.69228 132.143 5.91717C132.041 5.85558 131.957 5.76048 131.916 5.69346C131.966 5.68755 132.048 5.68263 132.183 5.68263H136.144C137.358 5.68263 138.159 5.68262 138.159 5.01149C138.159 4.35859 135.902 2.85865 135.352 2.85865C134.93 2.85865 134.816 3.00204 134.179 3.79783L134.103 3.89344C133.712 4.37437 133.618 4.37435 132.045 4.37435H130.977C130.832 4.37435 130.683 4.37436 130.601 4.36352C130.749 4.09497 131.484 3.25631 131.766 2.97494C131.811 2.92961 131.912 2.84682 132.034 2.7463C132.69 2.20427 132.923 1.97613 132.923 1.77361C132.923 1.33801 132.721 1.25523 131.121 0.600356C130.626 0.388965 129.77 0.0341797 129.6 0.0341797C129.26 0.0341797 129.168 0.335745 129.069 0.65505C129.05 0.716644 129.03 0.782178 129.003 0.863482C128.996 0.889598 128.278 3.5076 125.53 7.05691C125.513 7.07613 123.83 9.14964 123.83 9.38616C123.83 9.57292 123.986 9.71335 124.192 9.71335Z" fill="black" style="fill:black;fill-opacity:1;"/>
<path d="M149.888 20.0125C149.503 20.0125 149.367 20.1727 148.484 21.2144L148.371 21.3479C147.97 21.7801 147.819 21.8727 147.132 21.8727H146.581C145.997 21.8727 145.736 21.7953 145.736 21.3385C145.736 21.1922 145.736 20.9917 145.819 20.8867C146.032 20.6728 146.529 20.148 146.529 19.8918C146.529 18.8063 143.17 18.7383 143.136 18.7383C142.801 18.7383 142.671 18.8492 142.671 19.134C142.671 19.2714 142.701 19.6691 142.735 20.1303C142.77 20.5984 142.809 21.1291 142.809 21.3041C142.809 21.8165 142.528 21.8727 141.93 21.8727H131.045C129.611 21.8727 128.335 21.82 126.857 21.7584L126.292 21.7352C126.194 21.7352 125.903 21.7116 125.599 21.6869C125.244 21.6588 124.909 21.6317 124.776 21.6317C124.522 21.6317 124.483 21.7934 124.483 21.8899C124.483 22.0255 124.514 22.0639 124.664 22.2516L125.308 23.0282C125.404 23.1726 125.595 23.3189 125.775 23.3189C125.83 23.3189 125.993 23.3017 126.157 23.2834C126.304 23.2672 126.45 23.2504 126.519 23.2494C127.087 23.1864 128.755 23.147 130.873 23.147H141.724C142.406 23.147 142.687 23.1652 142.816 23.6294C142.846 23.7427 142.878 24.5395 142.878 26.4371C142.878 28.1019 142.573 28.9343 141.965 28.9343C141.836 28.9343 140.924 28.8506 140.258 28.7895C139.512 28.7215 139.202 28.6934 139.14 28.6934C138.827 28.6934 138.641 28.8028 138.641 28.9861C138.641 29.1389 138.776 29.2231 139.057 29.3847C139.105 29.4123 139.147 29.436 139.197 29.467C140.587 30.1268 140.924 30.3072 141.165 30.9399C141.444 31.7751 141.518 31.9998 142.171 31.9998C142.521 31.9998 143.334 31.8712 144.16 31.3893C145.771 30.4742 145.771 29.125 145.771 28.4002C145.771 28.0981 145.755 27.2151 145.738 26.309C145.72 25.3565 145.702 24.3783 145.702 24.0255C145.702 23.147 146.184 23.147 146.649 23.147H150.921C152.199 23.147 152.97 23.147 152.97 22.4753C152.97 21.7347 150.367 20.0125 149.888 20.0125Z" fill="black" style="fill:black;fill-opacity:1;"/>
<path d="M177.901 1.20503C178.211 1.82639 178.852 3.79347 179.055 5.04852L179.07 5.12883C179.209 5.86452 179.467 7.23438 180.653 7.23438C181.46 7.23438 182.117 6.36122 182.117 5.28849C182.117 2.79269 179.419 0.700943 178.346 0.289001C178.163 0.218537 177.902 0.142661 177.764 0.297878C177.604 0.458024 177.705 0.740363 177.854 1.09268C177.871 1.13161 177.885 1.16216 177.901 1.20503Z" fill="black" style="fill:black;fill-opacity:1;"/>
<path d="M184.683 8.85318C185.05 8.85318 186.825 7.37591 188.643 5.55814C189.989 4.17646 190.129 4.04538 190.681 3.9143C191.299 3.74283 191.555 3.67187 191.555 3.22149C191.555 2.68735 190.559 1.97089 188.838 0.913435L188.717 0.839518C188.527 0.724707 188.24 0.551758 187.99 0.551758C187.604 0.551758 187.559 0.839517 187.459 1.47271C187.267 2.84601 186.19 4.9895 185.785 5.79614L185.72 5.92672C185.66 6.04646 185.398 6.53033 185.122 7.04132C184.612 7.98609 184.356 8.48099 184.356 8.52599C184.356 8.70043 184.509 8.85318 184.683 8.85318Z" fill="black" style="fill:black;fill-opacity:1;"/>
<path d="M169.067 1.95786C170.263 3.53122 170.361 3.65934 171.044 5.09326C172.072 7.287 172.258 7.68218 173.248 7.68218C174.131 7.68218 174.608 6.91053 174.608 6.18421C174.608 2.98377 170.268 1.27539 169.424 1.27539C169.22 1.27539 169.021 1.29658 168.945 1.44884C168.871 1.59568 168.965 1.77012 169.032 1.89774L169.067 1.95786Z" fill="black" style="fill:black;fill-opacity:1;"/>
<path d="M192.366 7.78552C191.898 7.78552 191.774 7.95452 191.389 8.4798C191.012 8.97354 190.708 8.99078 189.335 8.99078H169.046C168.655 8.99078 168.367 8.96467 168.221 8.62418C167.781 7.58249 167.51 6.99316 167.083 6.99316C166.788 6.99316 166.683 7.32774 166.637 7.47064L166.621 7.52435C166.282 9.22139 166.226 9.43377 165.655 10.2059C164.574 11.7054 164.379 11.9759 164.379 12.7628C164.379 13.6079 165.035 14.2953 165.842 14.2953C167.29 14.2953 167.769 12.583 168.192 11.0717L168.265 10.8105C168.401 10.265 168.567 10.2651 169.184 10.2651H189.611C190.241 10.2651 190.351 10.3597 190.352 10.5553C190.341 10.6824 190.045 11.2722 189.83 11.7029C189.426 12.5105 189.18 13.0176 189.18 13.2447C189.18 13.4192 189.333 13.5719 189.507 13.5719C189.732 13.5719 189.924 13.4275 190.191 13.2275L190.246 13.1856C192.099 11.6965 193.089 11.5053 193.744 11.5053C193.807 11.5058 194.157 11.5615 194.389 11.5979C194.743 11.6546 194.893 11.6773 194.95 11.6773C195.318 11.6773 195.828 11.4201 195.828 10.9372C195.828 10.0364 193.185 7.78552 192.366 7.78552Z" fill="black" style="fill:black;fill-opacity:1;"/>
<path d="M191.814 19.2224C191.094 19.2224 190.911 19.5526 190.367 20.5317L190.237 20.7658C189.987 21.2092 189.628 21.2546 188.197 21.2546H182.238C181.776 21.2546 181.325 21.1974 181.325 20.514C181.325 18.5607 181.373 18.5311 181.746 18.301L181.797 18.2724C183.473 17.3145 186.007 15.8673 187.434 15.5608C188.473 15.3184 188.903 15.2178 188.903 14.5546C188.903 13.9564 187.117 12.0918 186.544 12.0918C186.132 12.0918 185.872 12.3096 185.541 12.7073C185.081 13.2286 185.02 13.2286 183.478 13.2286H175.693C173.664 13.2286 171.871 13.1547 170.94 13.0906C170.822 13.0906 170.509 13.065 170.197 13.0399C169.872 13.0132 169.547 12.9876 169.424 12.9876C169.14 12.9876 169.131 13.2187 169.131 13.2453C169.131 13.3809 169.162 13.4193 169.316 13.611L169.996 14.393C170.108 14.5413 170.224 14.6748 170.423 14.6748C170.495 14.6748 170.659 14.6576 170.823 14.6393C170.969 14.6231 171.116 14.6058 171.197 14.6053C172.36 14.5024 174.739 14.5024 175.521 14.5024H183.616C183.825 14.5024 184.042 14.5024 184.083 14.5388C183.982 14.936 181.54 17.2933 180.894 17.2933C180.763 17.2933 180.289 17.1726 179.908 17.075C179.347 16.9321 178.995 16.8454 178.828 16.8454C178.695 16.8454 178.26 16.8986 178.26 17.586C178.26 17.7299 178.36 18.2424 178.503 18.9603C178.569 19.3545 178.604 20.136 178.604 20.5485C178.604 21.2038 178.24 21.2546 177.726 21.2546H171.319C169.83 21.2546 168.437 21.1949 167.42 21.1511C167.097 21.1373 166.812 21.125 166.565 21.1166C166.447 21.1166 166.135 21.091 165.822 21.0658C165.497 21.0392 165.172 21.0136 165.049 21.0136C164.765 21.0136 164.757 21.2452 164.757 21.2718C164.757 21.4068 164.788 21.4453 164.938 21.6335L165.606 22.4401C165.757 22.5914 165.867 22.7008 166.048 22.7008C166.126 22.7008 166.308 22.6806 166.477 22.6614C166.606 22.6466 166.727 22.6318 166.788 22.6313C167.985 22.5288 170.364 22.5288 171.146 22.5288H177.76C178.578 22.5288 178.639 22.8767 178.639 23.4074C178.639 23.6405 178.625 24.2668 178.609 24.9527C178.59 25.7884 178.57 26.7118 178.57 27.1238C178.539 28.6952 178.25 28.6952 177.726 28.6952C177.331 28.6952 175.646 28.4646 174.836 28.3537C174.344 28.2862 174.308 28.2817 174.281 28.2817C173.868 28.2817 173.782 28.4783 173.782 28.6434C173.782 28.9598 174.157 29.1145 174.591 29.2934L174.739 29.355C176.124 29.9487 177.125 30.3774 177.374 31.2176L177.399 31.2939C177.522 31.6699 177.62 31.967 178.208 31.967C179.871 31.967 180.956 31.1811 181.185 29.8073C181.309 28.9721 181.36 27.3972 181.36 24.3717C181.36 22.5633 181.375 22.5288 182.169 22.5288H193.158C194.371 22.5288 195.172 22.5288 195.172 21.8917C195.172 21.2432 192.63 19.2224 191.814 19.2224Z" fill="black" style="fill:black;fill-opacity:1;"/>
<path d="M215.638 8.66365C215.638 9.32148 216.302 9.92067 217.032 9.92067C218.059 9.92067 219.2 8.73363 219.523 7.33421C219.694 6.68673 219.726 6.64829 220.098 6.64829H231.328C231.576 6.64829 231.655 6.71137 231.655 6.90699C231.655 7.27606 231.119 8.3478 230.918 8.74939C230.906 8.77107 230.878 8.80803 230.847 8.84992C230.714 9.02977 230.656 9.11896 230.656 9.21455C230.656 9.38702 230.777 9.50726 230.949 9.50726C231.033 9.50726 231.075 9.4905 232.066 8.90856C232.677 8.54934 233.437 8.10241 233.666 8.0142C233.699 8.00484 233.947 7.95706 235.634 7.95706C236.291 7.95706 236.684 7.61606 236.684 7.04447C236.684 6.55122 236.404 6.30041 236.08 6.05896C235.927 5.96041 235.586 5.72635 235.188 5.45287C233.266 4.13229 233.129 4.06527 233.016 4.06527C232.786 4.06527 232.636 4.17663 232.357 4.84037C232.163 5.33953 231.999 5.33954 231.603 5.33954H227.952C227.209 5.33954 227.039 5.16905 227.039 4.42647C227.039 2.86887 227.05 2.80136 227.339 2.61707C227.82 2.27313 227.934 2.19182 227.934 1.91194C227.934 0.998373 224.269 0.585938 224.232 0.585938C223.876 0.585938 223.801 0.782542 223.801 0.947614C223.801 1.11614 224.011 1.54829 224.015 1.54829C224.12 1.95038 224.18 2.82354 224.18 3.94455C224.18 5.09907 224.18 5.33954 223.267 5.33954H220.098C219.805 5.33954 219.648 5.32574 219.556 5.02713C219.549 5.00348 218.806 2.68753 218.031 2.68753C217.87 2.68753 217.773 2.85359 217.773 3.01423C217.773 3.09159 217.798 3.24238 217.839 3.48186C217.869 3.65974 217.911 3.90415 217.911 3.97905C217.911 4.77041 217.611 5.648 217.161 6.16736C215.811 7.82893 215.638 8.04278 215.638 8.66365Z" fill="black" style="fill:black;fill-opacity:1;"/>
<path d="M229.813 9.40527C229.659 9.40527 229.549 9.52896 229.053 10.1587C228.779 10.5066 228.27 11.1541 228.089 11.2102C227.95 11.2654 227.743 11.2654 227.057 11.2654H225.196C223.777 11.2654 222.514 11.2132 221.053 11.1526L220.443 11.1279C220.346 11.1279 220.054 11.1043 219.75 11.0796C219.395 11.0516 219.06 11.0245 218.927 11.0245C218.673 11.0245 218.635 11.1861 218.635 11.2827C218.635 11.4182 218.666 11.4566 218.816 11.6443L219.482 12.4495C219.634 12.6018 219.744 12.7117 219.926 12.7117C219.981 12.7117 220.145 12.6944 220.309 12.6762C220.455 12.6599 220.601 12.6432 220.669 12.6422C221.051 12.6037 222.126 12.5397 225.025 12.5397H230.054C232.024 12.5397 232.378 12.5397 232.378 11.7991C232.378 11.1506 230.082 9.40527 229.813 9.40527Z" fill="black" style="fill:black;fill-opacity:1;"/>
<path d="M215.672 17.5836C215.672 14.3752 213.834 12.2662 212.257 11.0339C211.618 10.5288 211.573 10.4795 211.573 10.2805C211.573 10.1129 211.669 9.97149 212.545 8.7327L213.435 7.47914C215.13 5.09027 215.702 4.2856 215.851 4.2107C216.387 3.90914 216.774 3.69134 216.774 3.25378C216.774 3.08476 216.669 2.84479 215.416 2.13719C215.404 2.13029 214.17 1.44537 214.036 1.44537C213.885 1.44537 213.724 1.5794 213.288 2.0692C213.239 2.12438 213.2 2.16824 213.187 2.18204C212.93 2.40969 212.675 2.40969 212.21 2.40969H210.178C209.905 2.40969 209.597 2.40969 209.16 2.22343L209.047 2.1638C207.754 1.47641 207.051 1.16992 206.767 1.16992C206.601 1.16992 206.475 1.31035 206.475 1.49661C206.475 1.54884 206.492 1.61439 206.54 1.78931C206.567 1.88392 206.61 2.04259 206.618 2.12833C206.647 2.24905 206.785 3.67458 206.785 5.32038C206.785 8.51343 206.68 23.4552 206.613 26.3226C206.601 26.533 206.562 27.0228 206.515 27.6057C206.42 28.772 206.303 30.2232 206.303 30.7076C206.303 31.4403 206.653 31.8956 207.215 31.8956C208.336 31.8956 209.471 31.2033 209.471 29.8807C209.471 29.7063 209.439 29.2234 209.405 28.7119C209.37 28.1935 209.334 27.6574 209.333 27.4618C209.196 24.0899 209.196 19.1145 209.196 15.482C209.196 12.5461 209.196 7.08198 209.333 4.43836C209.382 3.7756 209.785 3.68394 210.212 3.68394H211.969C212.424 3.68394 212.641 3.75342 212.641 4.1491C212.641 4.5645 211.889 6.42908 211.341 7.79056C210.722 9.32401 210.471 9.96903 210.471 10.1775C210.471 10.5544 210.571 10.7673 211.281 11.5473C211.853 12.1514 213.192 13.5661 213.192 16.8257C213.192 18.5814 212.704 19.3673 212.6 19.5166C212.377 19.8793 211.979 19.9089 211.521 19.9089C211.248 19.9089 210.049 19.8616 209.873 19.7862L209.799 19.7709C209.744 19.7709 209.677 19.7581 209.628 19.7497C209.58 19.7413 209.542 19.7364 209.523 19.7364C209.333 19.7364 209.231 19.8694 209.231 19.9946C209.231 20.0833 209.261 20.1715 209.655 20.5657C210.033 21.0062 210.687 21.8533 210.818 22.5776C210.895 22.997 210.978 23.1808 211.452 23.1808C213.154 23.1808 215.672 21.4019 215.672 17.5836Z" fill="black" style="fill:black;fill-opacity:1;"/>
<path d="M229.536 18.084H233.291C233.771 18.084 235.229 18.084 235.609 18.049L235.685 18.0451C236.285 18.014 236.718 17.9918 236.718 17.4814C236.718 16.6427 233.583 14.6396 233.36 14.6396C233.192 14.6396 233.057 14.7958 232.499 15.5232C232.164 15.9592 231.604 16.6895 231.429 16.7442C231.279 16.7743 231.192 16.7752 230.294 16.7752H222.957C221.431 16.7752 220.022 16.7447 218.238 16.6723C218.128 16.6723 217.795 16.6363 217.5 16.6043C217.168 16.5683 216.853 16.5343 216.722 16.5343C216.536 16.5343 216.396 16.6599 216.396 16.827C216.396 16.9177 216.438 16.9738 216.51 17.0665L217.276 17.9608C217.379 18.0993 217.496 18.256 217.721 18.256C217.847 18.256 218.346 18.183 218.453 18.153C219.264 18.1175 221.116 18.084 221.166 18.084C221.43 18.084 221.631 18.1185 221.631 18.5492C221.631 18.8704 221.5 20.0456 221.325 21.1327C220.583 25.1481 218.776 27.9681 215.804 29.7509C215.653 29.8352 215.111 30.0693 214.633 30.2762C213.971 30.5627 213.64 30.7529 213.64 30.8468C213.64 31.0425 213.844 31.1735 214.036 31.1735C216.114 31.1735 218.831 29.9333 220.664 28.1372C221.322 27.4793 222.863 25.939 223.968 21.5205C224.246 20.3413 224.273 20.2856 224.464 20.0649C225.037 19.5292 225.11 19.4603 225.11 19.2035C225.11 18.665 224.698 18.528 223.993 18.2944C223.729 18.2417 223.536 18.1727 223.438 18.1214C223.505 18.1037 223.642 18.084 223.922 18.084H225.748C226.168 18.084 226.28 18.1407 226.316 18.3427V23.7507C226.316 23.9389 226.319 28.3732 226.564 29.3134C226.958 30.7088 229.297 31.0016 231.19 31.0016C232.066 31.0016 234.227 30.8715 235.36 29.6652C236.093 28.8615 236.477 27.9879 236.477 27.5395C236.477 27.3522 236.389 27.1389 236.215 26.924C236.145 26.8535 235.944 26.6697 235.743 26.486C235.548 26.3081 235.353 26.1302 235.29 26.0671C234.865 25.6123 234.514 23.8877 234.514 23.1993C234.514 22.7041 234.264 22.6656 234.187 22.6656C233.967 22.6656 233.908 22.6656 233.408 25.425C233.323 25.8932 233.251 26.2888 233.209 26.4677C232.898 27.6424 232.693 28.4185 231.087 28.4185C230.226 28.4185 229.286 28.2328 229.127 27.8159C229.059 27.6395 228.899 26.4534 228.899 19.2725C228.899 18.4802 229.112 18.084 229.536 18.084Z" fill="black" style="fill:black;fill-opacity:1;"/>
</svg>
