<svg width="16" height="11" viewBox="0 0 16 11" fill="none" xmlns="http://www.w3.org/2000/svg">
<path d="M15.6631 1.72161C15.4815 1.04271 14.9367 0.509896 14.2483 0.329427C13.0033 0 8 0 8 0C8 0 2.9967 0 1.74881 0.329427C1.06042 0.509896 0.518491 1.04271 0.333944 1.72161C5.58725e-08 2.95052 0 5.51146 0 5.51146C0 5.51146 5.58725e-08 8.0724 0.333944 9.3013C0.518491 9.97734 1.06042 10.4901 1.74881 10.6706C2.9967 11 8 11 8 11C8 11 13.0033 11 14.2512 10.6706C14.9396 10.4901 15.4815 9.97734 15.6661 9.3013C16 8.0724 16 5.51146 16 5.51146C16 5.51146 16 2.95052 15.6661 1.72161H15.6631ZM6.3625 7.8375V3.18542L10.5427 5.51146L6.3625 7.8375Z" fill="black" style="fill:black;fill-opacity:1;"/>
</svg>
